<mxfile host="app.diagrams.net" agent="Mozilla/5.0 (Windows NT 10.0; Win64; x64) AppleWebKit/537.36 (KHTML, like Gecko) Chrome/135.0.0.0 Safari/537.36 Edg/135.0.0.0" version="27.1.5">
  <diagram name="Página-1" id="S4y_5g3333veaEuJAQaQ">
    <mxGraphModel dx="2245" dy="756" grid="1" gridSize="10" guides="1" tooltips="1" connect="1" arrows="1" fold="1" page="1" pageScale="1" pageWidth="827" pageHeight="1169" math="0" shadow="0">
      <root>
        <mxCell id="0" />
        <mxCell id="1" parent="0" />
        <mxCell id="ykpa14ynWp5qWRtfb-Vw-15" style="edgeStyle=orthogonalEdgeStyle;rounded=0;orthogonalLoop=1;jettySize=auto;html=1;entryX=0.5;entryY=0;entryDx=0;entryDy=0;entryPerimeter=0;endArrow=none;startFill=0;" edge="1" parent="1" source="ykpa14ynWp5qWRtfb-Vw-1" target="ykpa14ynWp5qWRtfb-Vw-10">
          <mxGeometry relative="1" as="geometry" />
        </mxCell>
        <mxCell id="ykpa14ynWp5qWRtfb-Vw-1" value="" style="shape=umlActor;verticalLabelPosition=bottom;verticalAlign=top;html=1;" vertex="1" parent="1">
          <mxGeometry x="540" y="145" width="30" height="60" as="geometry" />
        </mxCell>
        <mxCell id="ykpa14ynWp5qWRtfb-Vw-2" value="TransacaoController" style="html=1;whiteSpace=wrap;" vertex="1" parent="1">
          <mxGeometry x="110" y="150" width="120" height="50" as="geometry" />
        </mxCell>
        <mxCell id="ykpa14ynWp5qWRtfb-Vw-4" style="edgeStyle=orthogonalEdgeStyle;rounded=0;orthogonalLoop=1;jettySize=auto;html=1;entryX=0.5;entryY=0.5;entryDx=0;entryDy=0;entryPerimeter=0;endArrow=none;startFill=0;" edge="1" parent="1" source="ykpa14ynWp5qWRtfb-Vw-2" target="ykpa14ynWp5qWRtfb-Vw-1">
          <mxGeometry relative="1" as="geometry" />
        </mxCell>
        <mxCell id="ykpa14ynWp5qWRtfb-Vw-5" value="" style="endArrow=classic;html=1;rounded=0;" edge="1" parent="1">
          <mxGeometry width="50" height="50" relative="1" as="geometry">
            <mxPoint x="340" y="160" as="sourcePoint" />
            <mxPoint x="440" y="160" as="targetPoint" />
          </mxGeometry>
        </mxCell>
        <mxCell id="ykpa14ynWp5qWRtfb-Vw-9" value="1. enviarEmailConfirmacao&lt;div&gt;(alunoEmail, alunoNome, vantagemTitulo, vantagemValor);&lt;/div&gt;" style="text;html=1;align=center;verticalAlign=middle;resizable=0;points=[];autosize=1;strokeColor=none;fillColor=none;" vertex="1" parent="1">
          <mxGeometry x="-100" y="230" width="340" height="40" as="geometry" />
        </mxCell>
        <mxCell id="ykpa14ynWp5qWRtfb-Vw-10" value="Aluno" style="shape=umlActor;verticalLabelPosition=bottom;verticalAlign=top;html=1;outlineConnect=0;" vertex="1" parent="1">
          <mxGeometry x="540" y="400" width="30" height="60" as="geometry" />
        </mxCell>
        <mxCell id="ykpa14ynWp5qWRtfb-Vw-13" value="" style="endArrow=classic;html=1;rounded=0;" edge="1" parent="1">
          <mxGeometry width="50" height="50" relative="1" as="geometry">
            <mxPoint x="570" y="300" as="sourcePoint" />
            <mxPoint x="570" y="350" as="targetPoint" />
          </mxGeometry>
        </mxCell>
        <mxCell id="ykpa14ynWp5qWRtfb-Vw-16" style="edgeStyle=orthogonalEdgeStyle;rounded=0;orthogonalLoop=1;jettySize=auto;html=1;exitX=0;exitY=0.5;exitDx=0;exitDy=0;entryX=0.333;entryY=1.08;entryDx=0;entryDy=0;entryPerimeter=0;endArrow=none;startFill=0;" edge="1" parent="1" source="ykpa14ynWp5qWRtfb-Vw-2" target="ykpa14ynWp5qWRtfb-Vw-2">
          <mxGeometry relative="1" as="geometry" />
        </mxCell>
        <mxCell id="ykpa14ynWp5qWRtfb-Vw-18" value="1.1 JavaMailSender.send(mensagem do Email)" style="text;html=1;align=center;verticalAlign=middle;resizable=0;points=[];autosize=1;strokeColor=none;fillColor=none;" vertex="1" parent="1">
          <mxGeometry x="250" y="128" width="280" height="30" as="geometry" />
        </mxCell>
        <mxCell id="ykpa14ynWp5qWRtfb-Vw-19" value="1.2 Envia o&amp;nbsp;&lt;div&gt;E-mail para o aluno&lt;/div&gt;" style="text;html=1;align=center;verticalAlign=middle;resizable=0;points=[];autosize=1;strokeColor=none;fillColor=none;" vertex="1" parent="1">
          <mxGeometry x="570" y="300" width="130" height="40" as="geometry" />
        </mxCell>
        <mxCell id="ykpa14ynWp5qWRtfb-Vw-26" value="Serviço de Email" style="text;html=1;align=center;verticalAlign=middle;resizable=0;points=[];autosize=1;strokeColor=none;fillColor=none;" vertex="1" parent="1">
          <mxGeometry x="500" y="110" width="110" height="30" as="geometry" />
        </mxCell>
      </root>
    </mxGraphModel>
  </diagram>
</mxfile>
